<svg version="1.1" xmlns="http://www.w3.org/2000/svg" style="display: block;" viewBox="0 0 2048 2048" width="512" height="512" preserveAspectRatio="none">
<defs>
	<linearGradient id="Gradient1" gradientUnits="userSpaceOnUse" x1="1049.59" y1="1051.55" x2="1014.49" y2="1055.76">
		<stop class="stop0" offset="0" stop-opacity="1" stop-color="rgb(182,113,178)"/>
		<stop class="stop1" offset="1" stop-opacity="1" stop-color="rgb(141,163,216)"/>
	</linearGradient>
</defs>
<path transform="translate(0,0)" fill="rgb(255,255,255)" d="M 0 0 L 2048 0 L 2048 2048 L 0 2048 L 0 0 z"/>
<path transform="translate(0,0)" fill="rgb(71,142,210)" d="M 1023.89 937.976 C 1041.21 936.858 1073.05 933.365 1088.28 939.403 C 1098.85 943.626 1118.98 960.417 1127.17 968.511 C 1137.73 980.72 1141.53 987.332 1126.5 998.741 C 1118.89 1004.93 1112.11 1013.97 1106.83 1018.22 C 1103.91 1021.22 1099.94 1025.57 1096.86 1028.2 C 1091.37 1033.97 1083.25 1042 1078.6 1048.11 C 1077.72 1051.66 1077.11 1053.29 1077.28 1056.99 C 1078.24 1058.06 1079.16 1058.95 1079.88 1060.23 C 1082.71 1065.24 1088.61 1067.86 1092.42 1072 C 1107.72 1088.63 1101.15 1104.79 1081.72 1111.68 C 1065.88 1116.98 1000.24 1112.66 984.169 1108.68 C 974.855 1106.9 961.375 1102.33 954.834 1095.29 C 948.347 1089.42 949.662 1081.49 954.987 1075.47 C 964.095 1067.17 975.36 1067.52 980.635 1059.97 L 978.82 1055.97 C 966.766 1029.11 944.387 1020.2 926.994 1000.22 C 903.268 982.465 936.191 963.044 948.621 952.055 C 970.705 932.529 995.772 938.2 1023.89 937.976 z"/>
<path transform="translate(0,0)" fill="rgb(173,99,155)" d="M 1009.43 1079.48 L 1010.25 1077.76 L 1013.3 1080.27 C 1015.97 1080.83 1019.47 1081.65 1022.09 1082.01 C 1027.3 1081.84 1028.48 1081.9 1033.35 1080.22 L 1034.43 1080.38 C 1032.78 1082.56 1031.11 1083.65 1028.92 1085.19 L 1029.16 1086.74 C 1031.08 1088 1032.66 1089 1034.65 1090.14 C 1034.37 1092.79 1033.85 1096.74 1033.74 1099.3 C 1032.23 1101.76 1032.19 1102.27 1029.97 1104.02 C 1022.58 1101.3 1015.68 1098.11 1015.4 1089.38 C 1015.14 1084.19 1013.27 1083.26 1009.43 1079.48 z"/>
<path transform="translate(0,0)" fill="rgb(222,121,147)" d="M 1023.89 937.976 C 1041.21 936.858 1073.05 933.365 1088.28 939.403 C 1098.85 943.626 1118.98 960.417 1127.17 968.511 C 1137.73 980.72 1141.53 987.332 1126.5 998.741 C 1118.89 1004.93 1112.11 1013.97 1106.83 1018.22 C 1103.91 1021.22 1099.94 1025.57 1096.86 1028.2 C 1091.37 1033.97 1083.25 1042 1078.6 1048.11 C 1076.45 1046.64 1073.83 1046.6 1071.16 1046.22 C 1068.85 1049.75 1068.07 1050.83 1064.17 1052.97 C 1064.75 1046.59 1067.43 1039.61 1065.95 1035.19 C 1061.44 1032.48 1060.07 1031.84 1055.12 1030.05 C 1056.28 1026.24 1063.25 1014.91 1066.8 1012.18 C 1062.95 1011.02 1062.82 1010.3 1061.05 1007.52 C 1060.43 1002.7 1060.84 1002.25 1062.5 997.505 L 1063.1 996.536 C 1064.58 989.508 1058.69 985.515 1054.04 980.964 L 1055.73 980.258 C 1057.25 979.629 1059.63 977.852 1061.09 976.858 C 1062.1 973.501 1059.98 970.078 1058.49 966.36 C 1048.24 964.33 1044.16 952.861 1035.07 953.998 C 1034.32 948.713 1034.23 947.517 1032.04 942.709 L 1024.99 942.428 L 1023.89 937.976 z"/>
<path transform="translate(0,0)" fill="rgb(157,20,55)" d="M 1063.1 996.536 C 1069.5 992.699 1072.05 987.362 1078.67 984.08 C 1082.69 989.474 1085.34 992.828 1091.45 996.258 C 1094.3 996.832 1095.98 997.253 1098.91 997.479 C 1104.97 997.196 1114.04 995.041 1120.33 993.808 C 1124.62 995.22 1123.22 994.663 1126.5 998.741 C 1118.89 1004.93 1112.11 1013.97 1106.83 1018.22 C 1103.91 1021.22 1099.94 1025.57 1096.86 1028.2 C 1091.37 1033.97 1083.25 1042 1078.6 1048.11 C 1076.45 1046.64 1073.83 1046.6 1071.16 1046.22 C 1068.85 1049.75 1068.07 1050.83 1064.17 1052.97 C 1064.75 1046.59 1067.43 1039.61 1065.95 1035.19 C 1061.44 1032.48 1060.07 1031.84 1055.12 1030.05 C 1056.28 1026.24 1063.25 1014.91 1066.8 1012.18 C 1062.95 1011.02 1062.82 1010.3 1061.05 1007.52 C 1060.43 1002.7 1060.84 1002.25 1062.5 997.505 L 1063.1 996.536 z"/>
<path transform="translate(0,0)" fill="rgb(178,76,108)" d="M 1066.8 1012.18 C 1072.3 1015.31 1080.85 1022.99 1083.66 1024.22 L 1087.68 1028.59 C 1092.37 1027.65 1093.46 1026.44 1096.86 1028.2 C 1091.37 1033.97 1083.25 1042 1078.6 1048.11 C 1076.45 1046.64 1073.83 1046.6 1071.16 1046.22 C 1068.85 1049.75 1068.07 1050.83 1064.17 1052.97 C 1064.75 1046.59 1067.43 1039.61 1065.95 1035.19 C 1061.44 1032.48 1060.07 1031.84 1055.12 1030.05 C 1056.28 1026.24 1063.25 1014.91 1066.8 1012.18 z"/>
<path transform="translate(0,0)" fill="rgb(120,68,80)" d="M 1087.68 1028.59 C 1092.37 1027.65 1093.46 1026.44 1096.86 1028.2 C 1091.37 1033.97 1083.25 1042 1078.6 1048.11 C 1076.45 1046.64 1073.83 1046.6 1071.16 1046.22 C 1074.48 1038.61 1080.2 1032.28 1087.68 1028.59 z"/>
<path transform="translate(0,0)" fill="rgb(128,50,59)" d="M 1120.33 993.808 C 1124.62 995.22 1123.22 994.663 1126.5 998.741 C 1118.89 1004.93 1112.11 1013.97 1106.83 1018.22 C 1103.91 1021.22 1099.94 1025.57 1096.86 1028.2 C 1093.46 1026.44 1092.37 1027.65 1087.68 1028.59 L 1083.66 1024.22 C 1088.84 1024.9 1095.46 1021.6 1099.4 1018.32 L 1096.76 1016.64 C 1094.14 1017.1 1093.79 1017.48 1091.39 1016.57 C 1093.68 1014.08 1093.89 1014.84 1098.26 1014.2 C 1101.26 1011.69 1100.32 1012.48 1101.61 1008.02 C 1099.68 1003.58 1099.66 1002.37 1098.91 997.479 C 1104.97 997.196 1114.04 995.041 1120.33 993.808 z"/>
<path transform="translate(0,0)" fill="rgb(178,76,108)" d="M 1079.67 941.068 L 1081.05 939.304 C 1083.46 939.635 1084.24 939.774 1086.61 939.565 L 1088.28 939.403 C 1098.85 943.626 1118.98 960.417 1127.17 968.511 C 1137.73 980.72 1141.53 987.332 1126.5 998.741 C 1123.22 994.663 1124.62 995.22 1120.33 993.808 C 1114.04 995.041 1104.97 997.196 1098.91 997.479 C 1095.98 997.253 1094.3 996.832 1091.45 996.258 C 1096.45 996.07 1096.98 996.802 1100.31 994.188 C 1102.31 990.1 1101.32 983.874 1101.06 979.005 L 1098.58 976.39 C 1079.62 956.72 1103.76 953.598 1079.67 941.068 z"/>
<path transform="translate(0,0)" fill="rgb(222,121,147)" d="M 1127.17 968.511 C 1137.73 980.72 1141.53 987.332 1126.5 998.741 C 1123.22 994.663 1124.62 995.22 1120.33 993.808 L 1120.46 993.016 C 1108.95 993.764 1101.65 986.425 1111.57 976.354 C 1114.6 973.284 1121.61 975.572 1125.89 976.606 C 1125.98 974.061 1126.69 971.075 1127.17 968.511 z"/>
<path transform="translate(0,0)" fill="rgb(110,84,106)" d="M 1127.17 968.511 C 1137.73 980.72 1141.53 987.332 1126.5 998.741 C 1123.22 994.663 1124.62 995.22 1120.33 993.808 L 1120.46 993.016 C 1129.48 990.811 1133.14 983.872 1125.89 976.606 C 1125.98 974.061 1126.69 971.075 1127.17 968.511 z"/>
<path transform="translate(0,0)" fill="rgb(224,129,180)" d="M 1023.89 937.976 C 1041.21 936.858 1073.05 933.365 1088.28 939.403 L 1086.61 939.565 C 1084.24 939.774 1083.46 939.635 1081.05 939.304 L 1079.67 941.068 L 1079.13 941.208 C 1079.78 949.015 1066.8 956.393 1060.42 958.993 C 1063.14 960.012 1067.14 961.665 1069.82 962.268 C 1066.97 963.247 1062.06 964.824 1059.47 966.103 L 1058.49 966.36 C 1048.24 964.33 1044.16 952.861 1035.07 953.998 C 1034.32 948.713 1034.23 947.517 1032.04 942.709 L 1024.99 942.428 L 1023.89 937.976 z"/>
<path transform="translate(0,0)" fill="rgb(173,99,155)" d="M 1032.04 942.709 C 1042.3 942.175 1048.63 940.164 1059.42 940.999 C 1042.73 946.864 1049.83 961.766 1060.42 958.993 C 1063.14 960.012 1067.14 961.665 1069.82 962.268 C 1066.97 963.247 1062.06 964.824 1059.47 966.103 L 1058.49 966.36 C 1048.24 964.33 1044.16 952.861 1035.07 953.998 C 1034.32 948.713 1034.23 947.517 1032.04 942.709 z"/>
<path transform="translate(0,0)" fill="rgb(151,77,129)" d="M 1023.89 937.976 C 1041.21 936.858 1073.05 933.365 1088.28 939.403 L 1086.61 939.565 C 1084.24 939.774 1083.46 939.635 1081.05 939.304 L 1079.67 941.068 L 1079.13 941.208 C 1072.68 939.433 1065.92 939.618 1059.42 940.999 C 1048.63 940.164 1042.3 942.175 1032.04 942.709 L 1024.99 942.428 L 1023.89 937.976 z"/>
<path transform="translate(0,0)" fill="rgb(178,76,108)" d="M 1069.82 962.268 C 1073.61 960.12 1074.77 958.622 1078.63 958.766 C 1082.98 965.294 1075.86 975.575 1078.67 984.08 C 1072.05 987.362 1069.5 992.699 1063.1 996.536 C 1064.58 989.508 1058.69 985.515 1054.04 980.964 L 1055.73 980.258 C 1057.25 979.629 1059.63 977.852 1061.09 976.858 C 1062.1 973.501 1059.98 970.078 1058.49 966.36 L 1059.47 966.103 C 1062.06 964.824 1066.97 963.247 1069.82 962.268 z"/>
<path transform="translate(0,0)" fill="rgb(157,20,55)" d="M 1059.47 966.103 C 1062.67 965.979 1065.87 965.881 1069.07 965.81 C 1073.82 970.327 1067.94 979.366 1063.84 982.66 C 1060.7 981.861 1058.79 981.316 1055.73 980.258 C 1057.25 979.629 1059.63 977.852 1061.09 976.858 C 1062.1 973.501 1059.98 970.078 1058.49 966.36 L 1059.47 966.103 z"/>
<path transform="translate(0,0)" fill="rgb(178,76,108)" d="M 1071.16 1046.22 C 1073.83 1046.6 1076.45 1046.64 1078.6 1048.11 C 1077.72 1051.66 1077.11 1053.29 1077.28 1056.99 C 1078.24 1058.06 1079.16 1058.95 1079.88 1060.23 C 1082.71 1065.24 1088.61 1067.86 1092.42 1072 C 1107.72 1088.63 1101.15 1104.79 1081.72 1111.68 C 1065.88 1116.98 1000.24 1112.66 984.169 1108.68 C 974.855 1106.9 961.375 1102.33 954.834 1095.29 C 948.347 1089.42 949.662 1081.49 954.987 1075.47 C 960.116 1076.87 963.298 1077.79 968.336 1079.79 C 969.995 1085.49 977.646 1088.07 982.981 1089.25 L 989.882 1090.06 C 998.279 1090.18 1007.13 1090.61 1015.4 1089.38 C 1015.68 1098.11 1022.58 1101.3 1029.97 1104.02 C 1032.19 1102.27 1032.23 1101.76 1033.74 1099.3 C 1033.85 1096.74 1034.37 1092.79 1034.65 1090.14 C 1032.66 1089 1031.08 1088 1029.16 1086.74 L 1028.92 1085.19 C 1031.11 1083.65 1032.78 1082.56 1034.43 1080.38 C 1036.04 1078.71 1038.6 1077.26 1040.7 1075.1 C 1048.5 1067.08 1055.21 1059.75 1064.17 1052.97 C 1068.07 1050.83 1068.85 1049.75 1071.16 1046.22 z"/>
<path transform="translate(0,0)" fill="rgb(110,84,106)" d="M 954.834 1095.29 C 948.347 1089.42 949.662 1081.49 954.987 1075.47 C 960.116 1076.87 963.298 1077.79 968.336 1079.79 C 969.995 1085.49 977.646 1088.07 982.981 1089.25 L 989.882 1090.06 C 998.279 1090.18 1007.13 1090.61 1015.4 1089.38 C 1015.68 1098.11 1022.58 1101.3 1029.97 1104.02 C 1041.08 1110.14 1061.79 1104.66 1073.79 1103.08 L 1073.01 1104.47 L 1070.58 1104.64 L 1070.87 1105.73 C 1083.56 1107.11 1085.75 1101.39 1091.85 1102.44 L 1092.23 1103.99 C 1088.35 1107.42 1081.15 1109.3 1080.67 1110.95 L 1081.72 1111.68 C 1065.88 1116.98 1000.24 1112.66 984.169 1108.68 C 974.855 1106.9 961.375 1102.33 954.834 1095.29 z"/>
<path transform="translate(0,0)" fill="rgb(110,195,236)" d="M 954.834 1095.29 C 948.347 1089.42 949.662 1081.49 954.987 1075.47 C 960.116 1076.87 963.298 1077.79 968.336 1079.79 C 969.995 1085.49 977.646 1088.07 982.981 1089.25 L 989.882 1090.06 C 994.893 1091.18 996.783 1091.1 1000.34 1094.45 L 1001 1096.23 C 998.859 1099.2 997.631 1099.25 993.407 1100.14 C 988.924 1103.24 986.66 1103.49 981.495 1104.74 C 983.485 1107.12 982.241 1106.14 986.086 1106.8 C 985.322 1108.48 985.933 1107.82 984.169 1108.68 C 974.855 1106.9 961.375 1102.33 954.834 1095.29 z"/>
<path transform="translate(0,0)" fill="rgb(62,96,122)" d="M 954.834 1095.29 C 957.357 1094.77 956.675 1094.34 959.087 1095.36 C 970.859 1100.37 980.941 1101.6 993.407 1100.14 C 988.924 1103.24 986.66 1103.49 981.495 1104.74 C 983.485 1107.12 982.241 1106.14 986.086 1106.8 C 985.322 1108.48 985.933 1107.82 984.169 1108.68 C 974.855 1106.9 961.375 1102.33 954.834 1095.29 z"/>
<path transform="translate(0,0)" fill="rgb(76,16,40)" d="M 1071.16 1046.22 C 1073.83 1046.6 1076.45 1046.64 1078.6 1048.11 C 1077.72 1051.66 1077.11 1053.29 1077.28 1056.99 C 1075.14 1060.14 1070.51 1063.61 1069.16 1066.78 C 1065.29 1075.89 1066.81 1086.77 1055.6 1090.24 C 1048.55 1090.42 1041.67 1090.77 1034.65 1090.14 C 1032.66 1089 1031.08 1088 1029.16 1086.74 L 1028.92 1085.19 C 1031.11 1083.65 1032.78 1082.56 1034.43 1080.38 C 1036.04 1078.71 1038.6 1077.26 1040.7 1075.1 C 1048.5 1067.08 1055.21 1059.75 1064.17 1052.97 C 1068.07 1050.83 1068.85 1049.75 1071.16 1046.22 z"/>
<path transform="translate(0,0)" fill="rgb(120,68,80)" d="M 1077.28 1056.99 C 1078.24 1058.06 1079.16 1058.95 1079.88 1060.23 C 1082.71 1065.24 1088.61 1067.86 1092.42 1072 C 1107.72 1088.63 1101.15 1104.79 1081.72 1111.68 L 1080.67 1110.95 C 1081.15 1109.3 1088.35 1107.42 1092.23 1103.99 L 1091.85 1102.44 C 1085.75 1101.39 1083.56 1107.11 1070.87 1105.73 L 1070.58 1104.64 L 1073.01 1104.47 L 1073.79 1103.08 C 1078.05 1100.99 1078.41 1100.79 1083.01 1099.94 C 1086.18 1099.29 1085.97 1099.36 1088.64 1097.53 C 1092.85 1092.62 1097.72 1088.79 1096.19 1082.13 C 1093.3 1079.31 1093.26 1079.49 1089.43 1077.9 C 1079.42 1076.57 1074.74 1082.27 1068.13 1088.88 C 1063.32 1089.72 1060.52 1090.38 1055.6 1090.24 C 1066.81 1086.77 1065.29 1075.89 1069.16 1066.78 C 1070.51 1063.61 1075.14 1060.14 1077.28 1056.99 z"/>
<path transform="translate(0,0)" fill="rgb(222,121,147)" d="M 1089.43 1077.9 C 1093.26 1079.49 1093.3 1079.31 1096.19 1082.13 C 1097.72 1088.79 1092.85 1092.62 1088.64 1097.53 C 1082.25 1098.84 1077.65 1100.35 1071.98 1097.44 C 1068.43 1090.01 1083.73 1081.67 1089.43 1077.9 z"/>
<path transform="translate(0,0)" fill="rgb(151,77,129)" d="M 1033.74 1099.3 C 1047.18 1100 1068.66 1099.78 1083.01 1099.94 C 1078.41 1100.79 1078.05 1100.99 1073.79 1103.08 C 1061.79 1104.66 1041.08 1110.14 1029.97 1104.02 C 1032.19 1102.27 1032.23 1101.76 1033.74 1099.3 z"/>
<path transform="translate(0,0)" fill="url(#Gradient1)" d="M 1062.5 997.505 C 1060.84 1002.25 1060.43 1002.7 1061.05 1007.52 C 1062.82 1010.3 1062.95 1011.02 1066.8 1012.18 C 1063.25 1014.91 1056.28 1026.24 1055.12 1030.05 C 1060.07 1031.84 1061.44 1032.48 1065.95 1035.19 C 1067.43 1039.61 1064.75 1046.59 1064.17 1052.97 C 1055.21 1059.75 1048.5 1067.08 1040.7 1075.1 C 1038.6 1077.26 1036.04 1078.71 1034.43 1080.38 L 1033.35 1080.22 C 1028.48 1081.9 1027.3 1081.84 1022.09 1082.01 C 1017.81 1079.75 1012.37 1070.09 1011.4 1065.58 L 1013.04 1063.38 C 1010.12 1053.15 1019.97 1051.15 1026.22 1043.04 C 1025.99 1037.65 1026.8 1031.37 1022.57 1027.79 C 1018.39 1028.52 1019.37 1028.63 1015.61 1031.74 C 1015.54 1028.94 1015.77 1026.79 1015.98 1024 C 1024.65 1020.29 1021.28 1028.49 1028.87 1016.32 L 1030.18 1015.91 C 1035.27 1015.29 1038.82 1017.16 1043.13 1013.32 C 1044.67 1009.72 1044.26 1008.3 1043.99 1004.43 L 1055.61 1004.32 L 1062.5 997.505 z"/>
<path transform="translate(0,0)" fill="rgb(143,40,110)" d="M 1062.5 997.505 C 1060.84 1002.25 1060.43 1002.7 1061.05 1007.52 C 1062.82 1010.3 1062.95 1011.02 1066.8 1012.18 C 1063.25 1014.91 1056.28 1026.24 1055.12 1030.05 C 1050.67 1034.96 1045.99 1040.33 1041.37 1045.02 C 1039.88 1045.17 1039.12 1044.93 1037.6 1044.72 C 1034.95 1041.98 1034.9 1039.33 1034.12 1035.51 C 1030.36 1025.66 1036.75 1023.23 1030.18 1015.91 C 1035.27 1015.29 1038.82 1017.16 1043.13 1013.32 C 1044.67 1009.72 1044.26 1008.3 1043.99 1004.43 L 1055.61 1004.32 L 1062.5 997.505 z"/>
<path transform="translate(0,0)" fill="rgb(151,77,129)" d="M 1043.99 1004.43 L 1055.61 1004.32 C 1053.73 1006.5 1052 1008.57 1051.34 1011.13 C 1049.67 1017.56 1039.68 1021.5 1034.9 1025.63 C 1034.6 1025.89 1034.18 1034.09 1034.12 1035.51 C 1030.36 1025.66 1036.75 1023.23 1030.18 1015.91 C 1035.27 1015.29 1038.82 1017.16 1043.13 1013.32 C 1044.67 1009.72 1044.26 1008.3 1043.99 1004.43 z"/>
<path transform="translate(0,0)" fill="rgb(232,211,246)" d="M 1013.04 1063.38 C 1020.05 1062.89 1032.1 1059.83 1036.59 1062.81 C 1037.72 1066.56 1034.59 1075.9 1033.35 1080.22 C 1028.48 1081.9 1027.3 1081.84 1022.09 1082.01 C 1017.81 1079.75 1012.37 1070.09 1011.4 1065.58 L 1013.04 1063.38 z"/>
<path transform="translate(0,0)" fill="rgb(224,129,180)" d="M 1055.12 1030.05 C 1060.07 1031.84 1061.44 1032.48 1065.95 1035.19 C 1062.82 1049.62 1044.46 1062.63 1041.37 1045.02 C 1045.99 1040.33 1050.67 1034.96 1055.12 1030.05 z"/>
<path transform="translate(0,0)" fill="rgb(120,127,214)" d="M 1038.83 976.681 C 1047.23 975.213 1047.54 975.476 1054.04 980.964 C 1058.69 985.515 1064.58 989.508 1063.1 996.536 L 1062.5 997.505 L 1055.61 1004.32 L 1043.99 1004.43 C 1044.26 1008.3 1044.67 1009.72 1043.13 1013.32 C 1038.82 1017.16 1035.27 1015.29 1030.18 1015.91 L 1028.87 1016.32 C 1021.28 1028.49 1024.65 1020.29 1015.98 1024 L 1016.03 1023.29 C 1017.98 1016.32 1015.06 1008.17 1008.59 1004.59 C 1003.66 999.922 1000.69 999.505 994.436 996.372 L 996.88 995.678 C 1007.13 997.468 1011.59 998.416 1022.04 996.136 C 1023.89 992.691 1024.62 991.08 1026.02 987.43 C 1030.63 985.248 1033.6 981.232 1037.12 977.374 L 1038.83 976.681 z"/>
<path transform="translate(0,0)" fill="rgb(193,131,199)" d="M 1038.83 976.681 C 1047.23 975.213 1047.54 975.476 1054.04 980.964 C 1058.69 985.515 1064.58 989.508 1063.1 996.536 L 1062.5 997.505 L 1055.61 1004.32 L 1043.99 1004.43 C 1043.51 1002.15 1042.56 999.267 1041.89 996.971 L 1042 995.399 C 1040.49 990.09 1041.47 984.729 1038.83 976.681 z"/>
<path transform="translate(0,0)" fill="rgb(115,57,145)" d="M 1028.87 1016.32 C 1026.22 1013.69 1026.23 1013.05 1026.07 1009.48 C 1028.31 1003.4 1035.32 997.003 1041.89 996.971 C 1042.56 999.267 1043.51 1002.15 1043.99 1004.43 C 1044.26 1008.3 1044.67 1009.72 1043.13 1013.32 C 1038.82 1017.16 1035.27 1015.29 1030.18 1015.91 L 1028.87 1016.32 z"/>
<path transform="translate(0,0)" fill="rgb(187,146,222)" d="M 1037.12 977.374 L 1038.83 976.681 C 1041.47 984.729 1040.49 990.09 1042 995.399 C 1039.8 995.201 1026.59 996.178 1022.04 996.136 C 1023.89 992.691 1024.62 991.08 1026.02 987.43 C 1030.63 985.248 1033.6 981.232 1037.12 977.374 z"/>
<path transform="translate(0,0)" fill="rgb(110,195,236)" d="M 934.283 972.797 C 941.815 970.244 974.072 971.059 983.089 973.139 C 987.077 974.059 988.901 986.365 985.981 990.536 C 979.462 992.845 956.037 997.917 948.498 999.352 C 947.236 999.592 937.878 996.014 935.593 995.134 C 932.624 992.934 930.655 991.918 929.002 988.619 C 925.729 986.055 924.295 984.943 923.785 981.229 C 925.933 977.448 929.154 977.171 932.906 973.988 L 934.283 972.797 z"/>
<path transform="translate(0,0)" fill="rgb(131,235,251)" d="M 929.002 988.619 L 929.368 983.198 C 936.955 976.667 952.859 979.676 959.679 986.412 C 954.015 1004.54 936.969 987.32 929.002 988.619 z"/>
<path transform="translate(0,0)" fill="rgb(71,142,210)" d="M 1024.99 942.428 L 1032.04 942.709 C 1034.23 947.517 1034.32 948.713 1035.07 953.998 C 1044.16 952.861 1048.24 964.33 1058.49 966.36 C 1059.98 970.078 1062.1 973.501 1061.09 976.858 C 1059.63 977.852 1057.25 979.629 1055.73 980.258 L 1054.04 980.964 C 1047.54 975.476 1047.23 975.213 1038.83 976.681 L 1037.12 977.374 C 1033.6 981.232 1030.63 985.248 1026.02 987.43 C 1025.82 979.042 1025.6 971.222 1016.65 968.247 C 1007.33 962.309 1022.99 948.884 1002.85 946.495 C 996.653 946.608 994.378 946.197 988.447 945.206 C 996.548 944.583 1018 942.596 1024.92 943.996 L 1024.99 942.428 z"/>
<path transform="translate(0,0)" fill="rgb(143,40,110)" d="M 1035.07 953.998 C 1044.16 952.861 1048.24 964.33 1058.49 966.36 C 1059.98 970.078 1062.1 973.501 1061.09 976.858 C 1059.63 977.852 1057.25 979.629 1055.73 980.258 L 1054.04 980.964 C 1047.54 975.476 1047.23 975.213 1038.83 976.681 L 1037.12 977.374 C 1034.09 978.455 1031.38 979.921 1028.41 979.217 C 1026.77 976.077 1027.52 976.206 1028.17 971.813 C 1031.38 966.732 1033.17 959.845 1035.07 953.998 z"/>
<path transform="translate(0,0)" fill="rgb(193,131,199)" d="M 1024.99 942.428 L 1032.04 942.709 C 1034.23 947.517 1034.32 948.713 1035.07 953.998 C 1033.17 959.845 1031.38 966.732 1028.17 971.813 C 1027.21 960.671 1024.55 958.113 1024.92 943.996 L 1024.99 942.428 z"/>
<path transform="translate(0,0)" fill="rgb(158,190,239)" d="M 1015.61 1031.74 C 1019.37 1028.63 1018.39 1028.52 1022.57 1027.79 C 1026.8 1031.37 1025.99 1037.65 1026.22 1043.04 C 1019.97 1051.15 1010.12 1053.15 1013.04 1063.38 L 1011.4 1065.58 C 1012.37 1070.09 1017.81 1079.75 1022.09 1082.01 C 1019.47 1081.65 1015.97 1080.83 1013.3 1080.27 C 1010.35 1075.53 1008.67 1071.17 1005.05 1066.75 C 997.614 1057.66 977.349 1045.14 980.652 1032.01 C 985.772 1029.89 1000.82 1044.28 1010.92 1041.72 C 1014.69 1038.65 1014.47 1036.87 1015.61 1031.74 z"/>
<path transform="translate(0,0)" fill="rgb(96,141,179)" d="M 926.994 1000.22 C 903.268 982.465 936.191 963.044 948.621 952.055 C 970.705 932.529 995.772 938.2 1023.89 937.976 L 1024.99 942.428 L 1024.92 943.996 C 1018 942.596 996.548 944.583 988.447 945.206 C 984.118 943.804 984.076 943.803 980.254 941.36 C 972.63 939.995 969.434 941.717 963.319 946.48 C 960.095 948.413 951.059 953.287 949.615 956.217 C 945.108 964.104 937.657 966.79 934.283 972.797 L 932.906 973.988 C 929.154 977.171 925.933 977.448 923.785 981.229 C 924.295 984.943 925.729 986.055 929.002 988.619 C 930.655 991.918 932.624 992.934 935.593 995.134 L 933.288 998.957 C 931.148 999.271 928.88 999.28 926.994 1000.22 z"/>
<path transform="translate(0,0)" fill="rgb(110,195,236)" d="M 963.319 946.48 C 969.434 941.717 972.63 939.995 980.254 941.36 C 984.076 943.803 984.118 943.804 988.447 945.206 C 994.378 946.197 996.653 946.608 1002.85 946.495 C 1006.26 949.418 1006.83 949.615 1008.54 953.597 C 1008.24 962.73 998.919 960.841 992.697 959.362 C 982.746 954.612 965.333 959.245 949.615 956.217 C 951.059 953.287 960.095 948.413 963.319 946.48 z"/>
<path transform="translate(0,0)" fill="rgb(137,173,243)" d="M 1016.65 968.247 C 1025.6 971.222 1025.82 979.042 1026.02 987.43 C 1024.62 991.08 1023.89 992.691 1022.04 996.136 C 1011.59 998.416 1007.13 997.468 996.88 995.678 C 996.463 995.621 994.328 994.622 993.859 994.416 C 990.361 987.633 1005.2 984.829 1006.92 974.052 C 1010.21 968.224 1010.09 969.491 1016.65 968.247 z"/>
<path transform="translate(0,0)" fill="rgb(158,190,239)" d="M 1009.15 984.06 C 1012.78 983.12 1017.96 985.311 1020.79 987.699 C 1022.19 990.982 1022.15 989.369 1020.99 992.7 C 1018.26 995.032 1015.33 995.303 1011.77 996.155 C 1007.15 995.124 1001.6 994.421 998.102 991.541 L 998.074 989.6 C 1000.95 986.568 1005.09 985.57 1009.15 984.06 z"/>
<path transform="translate(0,0)" fill="rgb(10,18,61)" d="M 982.981 1089.25 C 981.573 1080.84 974.039 1077.27 982.59 1070.01 L 983.769 1069.02 L 983.835 1064.46 C 989.628 1059.88 1005.42 1074.96 1009.43 1079.48 C 1013.27 1083.26 1015.14 1084.19 1015.4 1089.38 C 1007.13 1090.61 998.279 1090.18 989.882 1090.06 L 982.981 1089.25 z"/>
<path transform="translate(0,0)" fill="rgb(38,56,156)" d="M 994.421 1004.84 C 999.701 1004.53 1003.21 1004.37 1008.59 1004.59 C 1015.06 1008.17 1017.98 1016.32 1016.03 1023.29 C 994.361 1038.77 995.89 1020.46 994.421 1004.84 z"/>
<path transform="translate(0,0)" fill="rgb(96,141,179)" d="M 1002.85 946.495 C 1022.99 948.884 1007.33 962.309 1016.65 968.247 C 1010.09 969.491 1010.21 968.224 1006.92 974.052 C 1002.2 976.214 1001.96 978.194 997.08 979.693 L 996.028 978.734 C 997.504 968.486 1000.25 966.916 992.697 959.362 C 998.919 960.841 1008.24 962.73 1008.54 953.597 C 1006.83 949.615 1006.26 949.418 1002.85 946.495 z"/>
<path transform="translate(0,0)" fill="rgb(96,141,179)" d="M 980.635 1059.97 C 982.414 1063.33 982.755 1062.69 982.453 1065.84 C 977.173 1070.91 971.368 1068.11 967.973 1076.17 C 968.102 1077.2 968.381 1078.82 968.336 1079.79 C 963.298 1077.79 960.116 1076.87 954.987 1075.47 C 964.095 1067.17 975.36 1067.52 980.635 1059.97 z"/>
<path transform="translate(0,0)" fill="rgb(137,173,243)" d="M 973.588 1010.81 C 978.822 1013 991.62 1012.89 991.152 1021.48 C 988.237 1026.13 989.504 1024.59 984.264 1027.41 C 978.242 1025.11 966.009 1020.54 968.332 1012.55 L 973.588 1010.81 z"/>
</svg>